<mxfile host="Electron" modified="2024-06-04T14:39:06.119Z" agent="Mozilla/5.0 (Macintosh; Intel Mac OS X 10_15_7) AppleWebKit/537.36 (KHTML, like Gecko) draw.io/24.2.5 Chrome/120.0.6099.109 Electron/28.1.0 Safari/537.36" etag="k9L-xhkJh8R-RzpzA2uu" version="24.2.5" type="device">
  <diagram id="C5RBs43oDa-KdzZeNtuy" name="Page-1">
    <mxGraphModel dx="1272" dy="899" grid="1" gridSize="10" guides="1" tooltips="1" connect="1" arrows="1" fold="1" page="1" pageScale="1" pageWidth="827" pageHeight="1169" math="0" shadow="0">
      <root>
        <mxCell id="WIyWlLk6GJQsqaUBKTNV-0" />
        <mxCell id="WIyWlLk6GJQsqaUBKTNV-1" parent="WIyWlLk6GJQsqaUBKTNV-0" />
        <mxCell id="-KQdXzJKUP4JhZ1qx1T9-48" value="" style="rounded=0;whiteSpace=wrap;html=1;" vertex="1" parent="WIyWlLk6GJQsqaUBKTNV-1">
          <mxGeometry x="740" y="20" width="940" height="360" as="geometry" />
        </mxCell>
        <mxCell id="WIyWlLk6GJQsqaUBKTNV-2" value="" style="rounded=0;html=1;jettySize=auto;orthogonalLoop=1;fontSize=11;endArrow=block;endFill=0;endSize=8;strokeWidth=1;shadow=0;labelBackgroundColor=none;edgeStyle=orthogonalEdgeStyle;" parent="WIyWlLk6GJQsqaUBKTNV-1" source="WIyWlLk6GJQsqaUBKTNV-3" target="WIyWlLk6GJQsqaUBKTNV-6" edge="1">
          <mxGeometry relative="1" as="geometry" />
        </mxCell>
        <mxCell id="WIyWlLk6GJQsqaUBKTNV-3" value="Compose email" style="rounded=1;whiteSpace=wrap;html=1;fontSize=12;glass=0;strokeWidth=1;shadow=0;" parent="WIyWlLk6GJQsqaUBKTNV-1" vertex="1">
          <mxGeometry x="340" y="80" width="120" height="40" as="geometry" />
        </mxCell>
        <mxCell id="WIyWlLk6GJQsqaUBKTNV-4" value="Yes" style="rounded=0;html=1;jettySize=auto;orthogonalLoop=1;fontSize=11;endArrow=block;endFill=0;endSize=8;strokeWidth=1;shadow=0;labelBackgroundColor=none;edgeStyle=orthogonalEdgeStyle;" parent="WIyWlLk6GJQsqaUBKTNV-1" source="WIyWlLk6GJQsqaUBKTNV-6" target="WIyWlLk6GJQsqaUBKTNV-10" edge="1">
          <mxGeometry x="-0.2" y="10" relative="1" as="geometry">
            <mxPoint as="offset" />
          </mxGeometry>
        </mxCell>
        <mxCell id="WIyWlLk6GJQsqaUBKTNV-5" value="No" style="edgeStyle=orthogonalEdgeStyle;rounded=0;html=1;jettySize=auto;orthogonalLoop=1;fontSize=11;endArrow=block;endFill=0;endSize=8;strokeWidth=1;shadow=0;labelBackgroundColor=none;entryX=1;entryY=0.5;entryDx=0;entryDy=0;" parent="WIyWlLk6GJQsqaUBKTNV-1" source="WIyWlLk6GJQsqaUBKTNV-6" target="WIyWlLk6GJQsqaUBKTNV-7" edge="1">
          <mxGeometry y="10" relative="1" as="geometry">
            <mxPoint as="offset" />
            <Array as="points">
              <mxPoint x="500" y="210" />
              <mxPoint x="500" y="300" />
            </Array>
          </mxGeometry>
        </mxCell>
        <mxCell id="WIyWlLk6GJQsqaUBKTNV-6" value="Sign?" style="rhombus;whiteSpace=wrap;html=1;shadow=0;fontFamily=Helvetica;fontSize=12;align=center;strokeWidth=1;spacing=6;spacingTop=-4;" parent="WIyWlLk6GJQsqaUBKTNV-1" vertex="1">
          <mxGeometry x="350" y="170" width="100" height="80" as="geometry" />
        </mxCell>
        <mxCell id="WIyWlLk6GJQsqaUBKTNV-7" value="Generate HMAC" style="rounded=1;whiteSpace=wrap;html=1;fontSize=12;glass=0;strokeWidth=1;shadow=0;" parent="WIyWlLk6GJQsqaUBKTNV-1" vertex="1">
          <mxGeometry x="340" y="280" width="120" height="40" as="geometry" />
        </mxCell>
        <mxCell id="WIyWlLk6GJQsqaUBKTNV-9" value="Yes" style="edgeStyle=orthogonalEdgeStyle;rounded=0;html=1;jettySize=auto;orthogonalLoop=1;fontSize=11;endArrow=block;endFill=0;endSize=8;strokeWidth=1;shadow=0;labelBackgroundColor=none;entryX=0;entryY=0.5;entryDx=0;entryDy=0;exitX=0.5;exitY=1;exitDx=0;exitDy=0;" parent="WIyWlLk6GJQsqaUBKTNV-1" source="WIyWlLk6GJQsqaUBKTNV-10" target="WIyWlLk6GJQsqaUBKTNV-7" edge="1">
          <mxGeometry x="-0.2857" y="-10" relative="1" as="geometry">
            <mxPoint as="offset" />
            <mxPoint x="220" y="400" as="targetPoint" />
            <Array as="points">
              <mxPoint x="250" y="300" />
            </Array>
          </mxGeometry>
        </mxCell>
        <mxCell id="WIyWlLk6GJQsqaUBKTNV-10" value="Is passphrase valid?" style="rhombus;whiteSpace=wrap;html=1;shadow=0;fontFamily=Helvetica;fontSize=12;align=center;strokeWidth=1;spacing=6;spacingTop=-4;" parent="WIyWlLk6GJQsqaUBKTNV-1" vertex="1">
          <mxGeometry x="200" y="170" width="100" height="80" as="geometry" />
        </mxCell>
        <mxCell id="-KQdXzJKUP4JhZ1qx1T9-0" value="PGP Encryption and HMAC authentication" style="text;html=1;align=center;verticalAlign=middle;whiteSpace=wrap;rounded=0;fontSize=18;" vertex="1" parent="WIyWlLk6GJQsqaUBKTNV-1">
          <mxGeometry x="145" y="20" width="510" height="30" as="geometry" />
        </mxCell>
        <mxCell id="-KQdXzJKUP4JhZ1qx1T9-1" value="No" style="rounded=0;html=1;jettySize=auto;orthogonalLoop=1;fontSize=11;endArrow=block;endFill=0;endSize=8;strokeWidth=1;shadow=0;labelBackgroundColor=none;edgeStyle=orthogonalEdgeStyle;entryX=0;entryY=0.5;entryDx=0;entryDy=0;exitX=0.5;exitY=0;exitDx=0;exitDy=0;" edge="1" parent="WIyWlLk6GJQsqaUBKTNV-1" source="WIyWlLk6GJQsqaUBKTNV-10" target="WIyWlLk6GJQsqaUBKTNV-3">
          <mxGeometry x="-0.3748" y="10" relative="1" as="geometry">
            <mxPoint as="offset" />
            <mxPoint x="200" y="209.75" as="sourcePoint" />
            <mxPoint x="140" y="60" as="targetPoint" />
            <Array as="points">
              <mxPoint x="250" y="100" />
            </Array>
          </mxGeometry>
        </mxCell>
        <mxCell id="-KQdXzJKUP4JhZ1qx1T9-4" value="Encrypt?" style="rhombus;whiteSpace=wrap;html=1;shadow=0;fontFamily=Helvetica;fontSize=12;align=center;strokeWidth=1;spacing=6;spacingTop=-4;" vertex="1" parent="WIyWlLk6GJQsqaUBKTNV-1">
          <mxGeometry x="350" y="600" width="100" height="80" as="geometry" />
        </mxCell>
        <mxCell id="-KQdXzJKUP4JhZ1qx1T9-6" value="No" style="edgeStyle=orthogonalEdgeStyle;rounded=0;html=1;jettySize=auto;orthogonalLoop=1;fontSize=11;endArrow=block;endFill=0;endSize=8;strokeWidth=1;shadow=0;labelBackgroundColor=none;entryX=0;entryY=0.5;entryDx=0;entryDy=0;exitX=0;exitY=0.5;exitDx=0;exitDy=0;" edge="1" parent="WIyWlLk6GJQsqaUBKTNV-1" source="-KQdXzJKUP4JhZ1qx1T9-4" target="-KQdXzJKUP4JhZ1qx1T9-10">
          <mxGeometry y="10" relative="1" as="geometry">
            <mxPoint as="offset" />
            <mxPoint x="450" y="610" as="sourcePoint" />
            <mxPoint x="480" y="830" as="targetPoint" />
            <Array as="points">
              <mxPoint x="320" y="640" />
              <mxPoint x="320" y="845" />
            </Array>
          </mxGeometry>
        </mxCell>
        <mxCell id="-KQdXzJKUP4JhZ1qx1T9-7" value="Yes" style="rounded=0;html=1;jettySize=auto;orthogonalLoop=1;fontSize=11;endArrow=block;endFill=0;endSize=8;strokeWidth=1;shadow=0;labelBackgroundColor=none;edgeStyle=orthogonalEdgeStyle;exitX=0.5;exitY=1;exitDx=0;exitDy=0;entryX=0.5;entryY=0;entryDx=0;entryDy=0;" edge="1" parent="WIyWlLk6GJQsqaUBKTNV-1" source="-KQdXzJKUP4JhZ1qx1T9-4" target="-KQdXzJKUP4JhZ1qx1T9-8">
          <mxGeometry x="-0.208" y="10" relative="1" as="geometry">
            <mxPoint as="offset" />
            <mxPoint x="410" y="690" as="sourcePoint" />
            <mxPoint x="400" y="710" as="targetPoint" />
          </mxGeometry>
        </mxCell>
        <mxCell id="-KQdXzJKUP4JhZ1qx1T9-8" value="Encrypt message with recipient&#39;s public key" style="rounded=1;whiteSpace=wrap;html=1;fontSize=12;glass=0;strokeWidth=1;shadow=0;" vertex="1" parent="WIyWlLk6GJQsqaUBKTNV-1">
          <mxGeometry x="350" y="720" width="100" height="60" as="geometry" />
        </mxCell>
        <mxCell id="-KQdXzJKUP4JhZ1qx1T9-9" value="END" style="ellipse;whiteSpace=wrap;html=1;" vertex="1" parent="WIyWlLk6GJQsqaUBKTNV-1">
          <mxGeometry x="370" y="900" width="60" height="40" as="geometry" />
        </mxCell>
        <mxCell id="-KQdXzJKUP4JhZ1qx1T9-10" value="Send email" style="rounded=1;whiteSpace=wrap;html=1;fontSize=12;glass=0;strokeWidth=1;shadow=0;" vertex="1" parent="WIyWlLk6GJQsqaUBKTNV-1">
          <mxGeometry x="350" y="830" width="100" height="30" as="geometry" />
        </mxCell>
        <mxCell id="-KQdXzJKUP4JhZ1qx1T9-12" value="" style="rounded=0;html=1;jettySize=auto;orthogonalLoop=1;fontSize=11;endArrow=block;endFill=0;endSize=8;strokeWidth=1;shadow=0;labelBackgroundColor=none;edgeStyle=orthogonalEdgeStyle;entryX=0.5;entryY=0;entryDx=0;entryDy=0;exitX=0.5;exitY=1;exitDx=0;exitDy=0;" edge="1" parent="WIyWlLk6GJQsqaUBKTNV-1" source="-KQdXzJKUP4JhZ1qx1T9-8" target="-KQdXzJKUP4JhZ1qx1T9-10">
          <mxGeometry relative="1" as="geometry">
            <mxPoint x="399.82" y="760" as="sourcePoint" />
            <mxPoint x="399.82" y="810" as="targetPoint" />
          </mxGeometry>
        </mxCell>
        <mxCell id="-KQdXzJKUP4JhZ1qx1T9-13" value="" style="rounded=0;html=1;jettySize=auto;orthogonalLoop=1;fontSize=11;endArrow=block;endFill=0;endSize=8;strokeWidth=1;shadow=0;labelBackgroundColor=none;edgeStyle=orthogonalEdgeStyle;exitX=0.5;exitY=1;exitDx=0;exitDy=0;" edge="1" parent="WIyWlLk6GJQsqaUBKTNV-1" source="-KQdXzJKUP4JhZ1qx1T9-10">
          <mxGeometry relative="1" as="geometry">
            <mxPoint x="410" y="870" as="sourcePoint" />
            <mxPoint x="400" y="900" as="targetPoint" />
            <Array as="points">
              <mxPoint x="400" y="870" />
              <mxPoint x="400" y="870" />
            </Array>
          </mxGeometry>
        </mxCell>
        <mxCell id="-KQdXzJKUP4JhZ1qx1T9-14" value="Sign?" style="rhombus;whiteSpace=wrap;html=1;shadow=0;fontFamily=Helvetica;fontSize=12;align=center;strokeWidth=1;spacing=6;spacingTop=-4;" vertex="1" parent="WIyWlLk6GJQsqaUBKTNV-1">
          <mxGeometry x="350" y="360" width="100" height="80" as="geometry" />
        </mxCell>
        <mxCell id="-KQdXzJKUP4JhZ1qx1T9-15" value="Sign message with sender&#39;s private key" style="rounded=1;whiteSpace=wrap;html=1;fontSize=12;glass=0;strokeWidth=1;shadow=0;" vertex="1" parent="WIyWlLk6GJQsqaUBKTNV-1">
          <mxGeometry x="350" y="480" width="100" height="60" as="geometry" />
        </mxCell>
        <mxCell id="-KQdXzJKUP4JhZ1qx1T9-16" value="Yes" style="rounded=0;html=1;jettySize=auto;orthogonalLoop=1;fontSize=11;endArrow=block;endFill=0;endSize=8;strokeWidth=1;shadow=0;labelBackgroundColor=none;edgeStyle=orthogonalEdgeStyle;exitX=0.5;exitY=1;exitDx=0;exitDy=0;" edge="1" parent="WIyWlLk6GJQsqaUBKTNV-1" source="-KQdXzJKUP4JhZ1qx1T9-14">
          <mxGeometry x="-0.208" y="10" relative="1" as="geometry">
            <mxPoint as="offset" />
            <mxPoint x="450" y="399.72" as="sourcePoint" />
            <mxPoint x="400" y="480" as="targetPoint" />
          </mxGeometry>
        </mxCell>
        <mxCell id="-KQdXzJKUP4JhZ1qx1T9-17" value="" style="rounded=0;html=1;jettySize=auto;orthogonalLoop=1;fontSize=11;endArrow=block;endFill=0;endSize=8;strokeWidth=1;shadow=0;labelBackgroundColor=none;edgeStyle=orthogonalEdgeStyle;" edge="1" parent="WIyWlLk6GJQsqaUBKTNV-1">
          <mxGeometry relative="1" as="geometry">
            <mxPoint x="400" y="320" as="sourcePoint" />
            <mxPoint x="399.83" y="360" as="targetPoint" />
            <Array as="points">
              <mxPoint x="400" y="340" />
              <mxPoint x="400" y="340" />
            </Array>
          </mxGeometry>
        </mxCell>
        <mxCell id="-KQdXzJKUP4JhZ1qx1T9-19" value="No" style="edgeStyle=orthogonalEdgeStyle;rounded=0;html=1;jettySize=auto;orthogonalLoop=1;fontSize=11;endArrow=block;endFill=0;endSize=8;strokeWidth=1;shadow=0;labelBackgroundColor=none;exitX=0;exitY=0.5;exitDx=0;exitDy=0;entryX=0.5;entryY=0;entryDx=0;entryDy=0;" edge="1" parent="WIyWlLk6GJQsqaUBKTNV-1" target="-KQdXzJKUP4JhZ1qx1T9-4">
          <mxGeometry x="-0.1614" y="-10" relative="1" as="geometry">
            <mxPoint as="offset" />
            <mxPoint x="350" y="400" as="sourcePoint" />
            <mxPoint x="400" y="585" as="targetPoint" />
            <Array as="points">
              <mxPoint x="320" y="400" />
              <mxPoint x="320" y="570" />
              <mxPoint x="400" y="570" />
            </Array>
          </mxGeometry>
        </mxCell>
        <mxCell id="-KQdXzJKUP4JhZ1qx1T9-20" value="" style="rounded=0;html=1;jettySize=auto;orthogonalLoop=1;fontSize=11;endArrow=block;endFill=0;endSize=8;strokeWidth=1;shadow=0;labelBackgroundColor=none;edgeStyle=orthogonalEdgeStyle;" edge="1" parent="WIyWlLk6GJQsqaUBKTNV-1">
          <mxGeometry relative="1" as="geometry">
            <mxPoint x="400" y="540" as="sourcePoint" />
            <mxPoint x="400" y="600" as="targetPoint" />
            <Array as="points">
              <mxPoint x="400" y="560" />
              <mxPoint x="400" y="560" />
            </Array>
          </mxGeometry>
        </mxCell>
        <mxCell id="-KQdXzJKUP4JhZ1qx1T9-21" value="START" style="ellipse;whiteSpace=wrap;html=1;" vertex="1" parent="WIyWlLk6GJQsqaUBKTNV-1">
          <mxGeometry x="800" y="90" width="60" height="40" as="geometry" />
        </mxCell>
        <mxCell id="-KQdXzJKUP4JhZ1qx1T9-22" value="Compose email" style="rounded=1;whiteSpace=wrap;html=1;fontSize=12;glass=0;strokeWidth=1;shadow=0;" vertex="1" parent="WIyWlLk6GJQsqaUBKTNV-1">
          <mxGeometry x="770" y="170" width="120" height="40" as="geometry" />
        </mxCell>
        <mxCell id="-KQdXzJKUP4JhZ1qx1T9-24" value="Generate HMAC" style="rounded=1;whiteSpace=wrap;html=1;fontSize=12;glass=0;strokeWidth=1;shadow=0;" vertex="1" parent="WIyWlLk6GJQsqaUBKTNV-1">
          <mxGeometry x="940" y="170" width="120" height="40" as="geometry" />
        </mxCell>
        <mxCell id="-KQdXzJKUP4JhZ1qx1T9-25" value="" style="rounded=0;html=1;jettySize=auto;orthogonalLoop=1;fontSize=11;endArrow=block;endFill=0;endSize=8;strokeWidth=1;shadow=0;labelBackgroundColor=none;edgeStyle=orthogonalEdgeStyle;exitX=1;exitY=0.5;exitDx=0;exitDy=0;entryX=0;entryY=0.5;entryDx=0;entryDy=0;" edge="1" parent="WIyWlLk6GJQsqaUBKTNV-1" source="-KQdXzJKUP4JhZ1qx1T9-22" target="-KQdXzJKUP4JhZ1qx1T9-24">
          <mxGeometry relative="1" as="geometry">
            <mxPoint x="950" y="220" as="sourcePoint" />
            <mxPoint x="950" y="270" as="targetPoint" />
          </mxGeometry>
        </mxCell>
        <mxCell id="-KQdXzJKUP4JhZ1qx1T9-26" value="" style="rounded=0;html=1;jettySize=auto;orthogonalLoop=1;fontSize=11;endArrow=block;endFill=0;endSize=8;strokeWidth=1;shadow=0;labelBackgroundColor=none;edgeStyle=orthogonalEdgeStyle;exitX=0.5;exitY=1;exitDx=0;exitDy=0;entryX=0.5;entryY=0;entryDx=0;entryDy=0;" edge="1" parent="WIyWlLk6GJQsqaUBKTNV-1" source="-KQdXzJKUP4JhZ1qx1T9-21" target="-KQdXzJKUP4JhZ1qx1T9-22">
          <mxGeometry relative="1" as="geometry">
            <mxPoint x="715" y="189.72" as="sourcePoint" />
            <mxPoint x="770" y="190" as="targetPoint" />
          </mxGeometry>
        </mxCell>
        <mxCell id="-KQdXzJKUP4JhZ1qx1T9-27" value="Sign?" style="rhombus;whiteSpace=wrap;html=1;shadow=0;fontFamily=Helvetica;fontSize=12;align=center;strokeWidth=1;spacing=6;spacingTop=-4;" vertex="1" parent="WIyWlLk6GJQsqaUBKTNV-1">
          <mxGeometry x="1120" y="150" width="100" height="80" as="geometry" />
        </mxCell>
        <mxCell id="-KQdXzJKUP4JhZ1qx1T9-28" value="Sign message with sender&#39;s private key" style="rounded=1;whiteSpace=wrap;html=1;fontSize=12;glass=0;strokeWidth=1;shadow=0;" vertex="1" parent="WIyWlLk6GJQsqaUBKTNV-1">
          <mxGeometry x="1250" y="160" width="100" height="60" as="geometry" />
        </mxCell>
        <mxCell id="-KQdXzJKUP4JhZ1qx1T9-30" value="Is passphrase valid?" style="rhombus;whiteSpace=wrap;html=1;shadow=0;fontFamily=Helvetica;fontSize=12;align=center;strokeWidth=1;spacing=6;spacingTop=-4;" vertex="1" parent="WIyWlLk6GJQsqaUBKTNV-1">
          <mxGeometry x="1120" y="270" width="100" height="80" as="geometry" />
        </mxCell>
        <mxCell id="-KQdXzJKUP4JhZ1qx1T9-31" value="No" style="rounded=0;html=1;jettySize=auto;orthogonalLoop=1;fontSize=11;endArrow=block;endFill=0;endSize=8;strokeWidth=1;shadow=0;labelBackgroundColor=none;edgeStyle=orthogonalEdgeStyle;exitX=0.5;exitY=0;exitDx=0;exitDy=0;entryX=0.5;entryY=0;entryDx=0;entryDy=0;" edge="1" parent="WIyWlLk6GJQsqaUBKTNV-1" source="-KQdXzJKUP4JhZ1qx1T9-27" target="-KQdXzJKUP4JhZ1qx1T9-33">
          <mxGeometry x="0.027" y="10" relative="1" as="geometry">
            <mxPoint as="offset" />
            <mxPoint x="1090" y="210" as="sourcePoint" />
            <mxPoint x="1090" y="250" as="targetPoint" />
            <Array as="points">
              <mxPoint x="1170" y="120" />
              <mxPoint x="1440" y="120" />
            </Array>
          </mxGeometry>
        </mxCell>
        <mxCell id="-KQdXzJKUP4JhZ1qx1T9-32" value="Yes" style="rounded=0;html=1;jettySize=auto;orthogonalLoop=1;fontSize=11;endArrow=block;endFill=0;endSize=8;strokeWidth=1;shadow=0;labelBackgroundColor=none;edgeStyle=orthogonalEdgeStyle;entryX=0.5;entryY=0;entryDx=0;entryDy=0;exitX=0.5;exitY=1;exitDx=0;exitDy=0;" edge="1" parent="WIyWlLk6GJQsqaUBKTNV-1" source="-KQdXzJKUP4JhZ1qx1T9-27" target="-KQdXzJKUP4JhZ1qx1T9-30">
          <mxGeometry x="-0.208" y="10" relative="1" as="geometry">
            <mxPoint as="offset" />
            <mxPoint x="1180" y="240" as="sourcePoint" />
            <mxPoint x="1230" y="230" as="targetPoint" />
            <Array as="points" />
          </mxGeometry>
        </mxCell>
        <mxCell id="-KQdXzJKUP4JhZ1qx1T9-33" value="Encrypt?" style="rhombus;whiteSpace=wrap;html=1;shadow=0;fontFamily=Helvetica;fontSize=12;align=center;strokeWidth=1;spacing=6;spacingTop=-4;" vertex="1" parent="WIyWlLk6GJQsqaUBKTNV-1">
          <mxGeometry x="1390" y="150" width="100" height="80" as="geometry" />
        </mxCell>
        <mxCell id="-KQdXzJKUP4JhZ1qx1T9-34" value="" style="rounded=0;html=1;jettySize=auto;orthogonalLoop=1;fontSize=11;endArrow=block;endFill=0;endSize=8;strokeWidth=1;shadow=0;labelBackgroundColor=none;edgeStyle=orthogonalEdgeStyle;exitX=1;exitY=0.5;exitDx=0;exitDy=0;entryX=0;entryY=0.5;entryDx=0;entryDy=0;" edge="1" parent="WIyWlLk6GJQsqaUBKTNV-1" target="-KQdXzJKUP4JhZ1qx1T9-33">
          <mxGeometry relative="1" as="geometry">
            <mxPoint x="1350" y="189.57" as="sourcePoint" />
            <mxPoint x="1400" y="189.57" as="targetPoint" />
          </mxGeometry>
        </mxCell>
        <mxCell id="-KQdXzJKUP4JhZ1qx1T9-36" value="Yes" style="rounded=0;html=1;jettySize=auto;orthogonalLoop=1;fontSize=11;endArrow=block;endFill=0;endSize=8;strokeWidth=1;shadow=0;labelBackgroundColor=none;edgeStyle=orthogonalEdgeStyle;entryX=0.5;entryY=1;entryDx=0;entryDy=0;exitX=1;exitY=0.5;exitDx=0;exitDy=0;" edge="1" parent="WIyWlLk6GJQsqaUBKTNV-1" source="-KQdXzJKUP4JhZ1qx1T9-30" target="-KQdXzJKUP4JhZ1qx1T9-28">
          <mxGeometry x="-0.208" y="10" relative="1" as="geometry">
            <mxPoint as="offset" />
            <mxPoint x="1290" y="310" as="sourcePoint" />
            <mxPoint x="1290" y="350" as="targetPoint" />
            <Array as="points" />
          </mxGeometry>
        </mxCell>
        <mxCell id="-KQdXzJKUP4JhZ1qx1T9-37" value="No" style="rounded=0;html=1;jettySize=auto;orthogonalLoop=1;fontSize=11;endArrow=block;endFill=0;endSize=8;strokeWidth=1;shadow=0;labelBackgroundColor=none;edgeStyle=orthogonalEdgeStyle;entryX=0.5;entryY=1;entryDx=0;entryDy=0;exitX=0;exitY=0.5;exitDx=0;exitDy=0;" edge="1" parent="WIyWlLk6GJQsqaUBKTNV-1" source="-KQdXzJKUP4JhZ1qx1T9-30" target="-KQdXzJKUP4JhZ1qx1T9-22">
          <mxGeometry x="-0.208" y="10" relative="1" as="geometry">
            <mxPoint as="offset" />
            <mxPoint x="1070" y="280" as="sourcePoint" />
            <mxPoint x="1070" y="320" as="targetPoint" />
            <Array as="points" />
          </mxGeometry>
        </mxCell>
        <mxCell id="-KQdXzJKUP4JhZ1qx1T9-38" value="" style="rounded=0;html=1;jettySize=auto;orthogonalLoop=1;fontSize=11;endArrow=block;endFill=0;endSize=8;strokeWidth=1;shadow=0;labelBackgroundColor=none;edgeStyle=orthogonalEdgeStyle;exitX=1;exitY=0.5;exitDx=0;exitDy=0;entryX=0;entryY=0.5;entryDx=0;entryDy=0;" edge="1" parent="WIyWlLk6GJQsqaUBKTNV-1" target="-KQdXzJKUP4JhZ1qx1T9-27">
          <mxGeometry relative="1" as="geometry">
            <mxPoint x="1060" y="190" as="sourcePoint" />
            <mxPoint x="1110" y="190" as="targetPoint" />
          </mxGeometry>
        </mxCell>
        <mxCell id="-KQdXzJKUP4JhZ1qx1T9-39" value="Encrypt message with recipient&#39;s public key" style="rounded=1;whiteSpace=wrap;html=1;fontSize=12;glass=0;strokeWidth=1;shadow=0;" vertex="1" parent="WIyWlLk6GJQsqaUBKTNV-1">
          <mxGeometry x="1390" y="270" width="100" height="60" as="geometry" />
        </mxCell>
        <mxCell id="-KQdXzJKUP4JhZ1qx1T9-40" value="Send email" style="rounded=1;whiteSpace=wrap;html=1;fontSize=12;glass=0;strokeWidth=1;shadow=0;" vertex="1" parent="WIyWlLk6GJQsqaUBKTNV-1">
          <mxGeometry x="1550" y="190" width="100" height="30" as="geometry" />
        </mxCell>
        <mxCell id="-KQdXzJKUP4JhZ1qx1T9-41" value="END" style="ellipse;whiteSpace=wrap;html=1;" vertex="1" parent="WIyWlLk6GJQsqaUBKTNV-1">
          <mxGeometry x="1570" y="280" width="60" height="40" as="geometry" />
        </mxCell>
        <mxCell id="-KQdXzJKUP4JhZ1qx1T9-42" value="Yes" style="rounded=0;html=1;jettySize=auto;orthogonalLoop=1;fontSize=11;endArrow=block;endFill=0;endSize=8;strokeWidth=1;shadow=0;labelBackgroundColor=none;edgeStyle=orthogonalEdgeStyle;entryX=0.5;entryY=0;entryDx=0;entryDy=0;exitX=0.5;exitY=1;exitDx=0;exitDy=0;" edge="1" parent="WIyWlLk6GJQsqaUBKTNV-1" source="-KQdXzJKUP4JhZ1qx1T9-33" target="-KQdXzJKUP4JhZ1qx1T9-39">
          <mxGeometry x="-0.208" y="10" relative="1" as="geometry">
            <mxPoint as="offset" />
            <mxPoint x="1460" y="230" as="sourcePoint" />
            <mxPoint x="1460" y="270" as="targetPoint" />
            <Array as="points" />
          </mxGeometry>
        </mxCell>
        <mxCell id="-KQdXzJKUP4JhZ1qx1T9-43" value="No" style="rounded=0;html=1;jettySize=auto;orthogonalLoop=1;fontSize=11;endArrow=block;endFill=0;endSize=8;strokeWidth=1;shadow=0;labelBackgroundColor=none;edgeStyle=orthogonalEdgeStyle;entryX=0.5;entryY=0;entryDx=0;entryDy=0;exitX=1;exitY=0.5;exitDx=0;exitDy=0;" edge="1" parent="WIyWlLk6GJQsqaUBKTNV-1" source="-KQdXzJKUP4JhZ1qx1T9-33" target="-KQdXzJKUP4JhZ1qx1T9-40">
          <mxGeometry x="0.1163" y="10" relative="1" as="geometry">
            <mxPoint as="offset" />
            <mxPoint x="1530" y="200" as="sourcePoint" />
            <mxPoint x="1530" y="250" as="targetPoint" />
            <Array as="points">
              <mxPoint x="1510" y="190" />
              <mxPoint x="1510" y="130" />
              <mxPoint x="1600" y="130" />
            </Array>
          </mxGeometry>
        </mxCell>
        <mxCell id="-KQdXzJKUP4JhZ1qx1T9-45" value="" style="rounded=0;html=1;jettySize=auto;orthogonalLoop=1;fontSize=11;endArrow=block;endFill=0;endSize=8;strokeWidth=1;shadow=0;labelBackgroundColor=none;edgeStyle=orthogonalEdgeStyle;exitX=1;exitY=0.5;exitDx=0;exitDy=0;entryX=0;entryY=0.5;entryDx=0;entryDy=0;" edge="1" parent="WIyWlLk6GJQsqaUBKTNV-1" source="-KQdXzJKUP4JhZ1qx1T9-39" target="-KQdXzJKUP4JhZ1qx1T9-40">
          <mxGeometry relative="1" as="geometry">
            <mxPoint x="1360" y="199.57" as="sourcePoint" />
            <mxPoint x="1400" y="200" as="targetPoint" />
          </mxGeometry>
        </mxCell>
        <mxCell id="-KQdXzJKUP4JhZ1qx1T9-46" value="" style="rounded=0;html=1;jettySize=auto;orthogonalLoop=1;fontSize=11;endArrow=block;endFill=0;endSize=8;strokeWidth=1;shadow=0;labelBackgroundColor=none;edgeStyle=orthogonalEdgeStyle;exitX=0.5;exitY=1;exitDx=0;exitDy=0;entryX=0.5;entryY=0;entryDx=0;entryDy=0;" edge="1" parent="WIyWlLk6GJQsqaUBKTNV-1" source="-KQdXzJKUP4JhZ1qx1T9-40" target="-KQdXzJKUP4JhZ1qx1T9-41">
          <mxGeometry relative="1" as="geometry">
            <mxPoint x="1360" y="199.57" as="sourcePoint" />
            <mxPoint x="1400" y="200" as="targetPoint" />
          </mxGeometry>
        </mxCell>
        <mxCell id="-KQdXzJKUP4JhZ1qx1T9-47" value="Send Email Process" style="text;html=1;align=center;verticalAlign=middle;whiteSpace=wrap;rounded=0;fontSize=18;labelBackgroundColor=default;" vertex="1" parent="WIyWlLk6GJQsqaUBKTNV-1">
          <mxGeometry x="960" y="40" width="510" height="30" as="geometry" />
        </mxCell>
        <mxCell id="-KQdXzJKUP4JhZ1qx1T9-49" value="" style="rounded=0;whiteSpace=wrap;html=1;movable=0;resizable=0;rotatable=0;deletable=0;editable=0;locked=1;connectable=0;" vertex="1" parent="WIyWlLk6GJQsqaUBKTNV-1">
          <mxGeometry x="740" y="450" width="940" height="360" as="geometry" />
        </mxCell>
        <mxCell id="-KQdXzJKUP4JhZ1qx1T9-50" value="START" style="ellipse;whiteSpace=wrap;html=1;" vertex="1" parent="WIyWlLk6GJQsqaUBKTNV-1">
          <mxGeometry x="800" y="520" width="60" height="40" as="geometry" />
        </mxCell>
        <mxCell id="-KQdXzJKUP4JhZ1qx1T9-51" value="Open email" style="rounded=1;whiteSpace=wrap;html=1;fontSize=12;glass=0;strokeWidth=1;shadow=0;" vertex="1" parent="WIyWlLk6GJQsqaUBKTNV-1">
          <mxGeometry x="770" y="600" width="120" height="40" as="geometry" />
        </mxCell>
        <mxCell id="-KQdXzJKUP4JhZ1qx1T9-53" value="" style="rounded=0;html=1;jettySize=auto;orthogonalLoop=1;fontSize=11;endArrow=block;endFill=0;endSize=8;strokeWidth=1;shadow=0;labelBackgroundColor=none;edgeStyle=orthogonalEdgeStyle;exitX=1;exitY=0.5;exitDx=0;exitDy=0;entryX=0;entryY=0.5;entryDx=0;entryDy=0;" edge="1" parent="WIyWlLk6GJQsqaUBKTNV-1" source="-KQdXzJKUP4JhZ1qx1T9-51" target="-KQdXzJKUP4JhZ1qx1T9-97">
          <mxGeometry relative="1" as="geometry">
            <mxPoint x="950" y="650" as="sourcePoint" />
            <mxPoint x="950" y="700" as="targetPoint" />
          </mxGeometry>
        </mxCell>
        <mxCell id="-KQdXzJKUP4JhZ1qx1T9-54" value="" style="rounded=0;html=1;jettySize=auto;orthogonalLoop=1;fontSize=11;endArrow=block;endFill=0;endSize=8;strokeWidth=1;shadow=0;labelBackgroundColor=none;edgeStyle=orthogonalEdgeStyle;exitX=0.5;exitY=1;exitDx=0;exitDy=0;entryX=0.5;entryY=0;entryDx=0;entryDy=0;" edge="1" parent="WIyWlLk6GJQsqaUBKTNV-1" source="-KQdXzJKUP4JhZ1qx1T9-50" target="-KQdXzJKUP4JhZ1qx1T9-51">
          <mxGeometry relative="1" as="geometry">
            <mxPoint x="715" y="619.72" as="sourcePoint" />
            <mxPoint x="770" y="620" as="targetPoint" />
          </mxGeometry>
        </mxCell>
        <mxCell id="-KQdXzJKUP4JhZ1qx1T9-72" value="View Email Flowchart" style="text;html=1;align=center;verticalAlign=middle;whiteSpace=wrap;rounded=0;fontSize=18;labelBackgroundColor=default;" vertex="1" parent="WIyWlLk6GJQsqaUBKTNV-1">
          <mxGeometry x="960" y="470" width="510" height="30" as="geometry" />
        </mxCell>
        <mxCell id="-KQdXzJKUP4JhZ1qx1T9-97" value="Encrypt?" style="rhombus;whiteSpace=wrap;html=1;shadow=0;fontFamily=Helvetica;fontSize=12;align=center;strokeWidth=1;spacing=6;spacingTop=-4;" vertex="1" parent="WIyWlLk6GJQsqaUBKTNV-1">
          <mxGeometry x="940" y="580" width="100" height="80" as="geometry" />
        </mxCell>
        <mxCell id="-KQdXzJKUP4JhZ1qx1T9-98" value="Yes" style="rounded=0;html=1;jettySize=auto;orthogonalLoop=1;fontSize=11;endArrow=block;endFill=0;endSize=8;strokeWidth=1;shadow=0;labelBackgroundColor=none;edgeStyle=orthogonalEdgeStyle;exitX=1;exitY=0.5;exitDx=0;exitDy=0;" edge="1" parent="WIyWlLk6GJQsqaUBKTNV-1" source="-KQdXzJKUP4JhZ1qx1T9-97">
          <mxGeometry x="-0.208" y="10" relative="1" as="geometry">
            <mxPoint as="offset" />
            <mxPoint x="1080" y="630" as="sourcePoint" />
            <mxPoint x="1110" y="620" as="targetPoint" />
            <Array as="points">
              <mxPoint x="1080" y="620" />
            </Array>
          </mxGeometry>
        </mxCell>
        <mxCell id="-KQdXzJKUP4JhZ1qx1T9-99" value="Input passphrase" style="rounded=1;whiteSpace=wrap;html=1;fontSize=12;glass=0;strokeWidth=1;shadow=0;" vertex="1" parent="WIyWlLk6GJQsqaUBKTNV-1">
          <mxGeometry x="1110" y="590" width="100" height="60" as="geometry" />
        </mxCell>
        <mxCell id="-KQdXzJKUP4JhZ1qx1T9-101" value="Is passphrase valid?" style="rhombus;whiteSpace=wrap;html=1;shadow=0;fontFamily=Helvetica;fontSize=12;align=center;strokeWidth=1;spacing=6;spacingTop=-4;" vertex="1" parent="WIyWlLk6GJQsqaUBKTNV-1">
          <mxGeometry x="1110" y="690" width="100" height="80" as="geometry" />
        </mxCell>
        <mxCell id="-KQdXzJKUP4JhZ1qx1T9-102" value="Decrypt message with user private key" style="rounded=1;whiteSpace=wrap;html=1;fontSize=12;glass=0;strokeWidth=1;shadow=0;" vertex="1" parent="WIyWlLk6GJQsqaUBKTNV-1">
          <mxGeometry x="1260" y="706" width="110" height="48" as="geometry" />
        </mxCell>
        <mxCell id="-KQdXzJKUP4JhZ1qx1T9-103" value="Sign?" style="rhombus;whiteSpace=wrap;html=1;shadow=0;fontFamily=Helvetica;fontSize=12;align=center;strokeWidth=1;spacing=6;spacingTop=-4;" vertex="1" parent="WIyWlLk6GJQsqaUBKTNV-1">
          <mxGeometry x="1265" y="580" width="100" height="80" as="geometry" />
        </mxCell>
        <mxCell id="-KQdXzJKUP4JhZ1qx1T9-104" value="Verify message with sender&#39;s public key" style="rounded=1;whiteSpace=wrap;html=1;fontSize=12;glass=0;strokeWidth=1;shadow=0;" vertex="1" parent="WIyWlLk6GJQsqaUBKTNV-1">
          <mxGeometry x="1410" y="590" width="100" height="60" as="geometry" />
        </mxCell>
        <mxCell id="-KQdXzJKUP4JhZ1qx1T9-105" value="View email" style="rounded=1;whiteSpace=wrap;html=1;fontSize=12;glass=0;strokeWidth=1;shadow=0;" vertex="1" parent="WIyWlLk6GJQsqaUBKTNV-1">
          <mxGeometry x="1540" y="620" width="100" height="30" as="geometry" />
        </mxCell>
        <mxCell id="-KQdXzJKUP4JhZ1qx1T9-106" value="END" style="ellipse;whiteSpace=wrap;html=1;" vertex="1" parent="WIyWlLk6GJQsqaUBKTNV-1">
          <mxGeometry x="1560" y="710" width="60" height="40" as="geometry" />
        </mxCell>
        <mxCell id="-KQdXzJKUP4JhZ1qx1T9-107" value="No" style="rounded=0;html=1;jettySize=auto;orthogonalLoop=1;fontSize=11;endArrow=block;endFill=0;endSize=8;strokeWidth=1;shadow=0;labelBackgroundColor=none;edgeStyle=orthogonalEdgeStyle;exitX=0;exitY=0.5;exitDx=0;exitDy=0;" edge="1" parent="WIyWlLk6GJQsqaUBKTNV-1" source="-KQdXzJKUP4JhZ1qx1T9-101">
          <mxGeometry x="-0.208" y="10" relative="1" as="geometry">
            <mxPoint as="offset" />
            <mxPoint x="970" y="730" as="sourcePoint" />
            <mxPoint x="1110" y="620" as="targetPoint" />
            <Array as="points">
              <mxPoint x="1070" y="730" />
              <mxPoint x="1070" y="620" />
            </Array>
          </mxGeometry>
        </mxCell>
        <mxCell id="-KQdXzJKUP4JhZ1qx1T9-109" value="Yes" style="rounded=0;html=1;jettySize=auto;orthogonalLoop=1;fontSize=11;endArrow=block;endFill=0;endSize=8;strokeWidth=1;shadow=0;labelBackgroundColor=none;edgeStyle=orthogonalEdgeStyle;exitX=1;exitY=0.5;exitDx=0;exitDy=0;entryX=0;entryY=0.5;entryDx=0;entryDy=0;" edge="1" parent="WIyWlLk6GJQsqaUBKTNV-1" source="-KQdXzJKUP4JhZ1qx1T9-101" target="-KQdXzJKUP4JhZ1qx1T9-102">
          <mxGeometry x="-0.208" y="10" relative="1" as="geometry">
            <mxPoint as="offset" />
            <mxPoint x="1050" y="630" as="sourcePoint" />
            <mxPoint x="1120" y="630" as="targetPoint" />
            <Array as="points">
              <mxPoint x="1220" y="730" />
              <mxPoint x="1220" y="730" />
            </Array>
          </mxGeometry>
        </mxCell>
        <mxCell id="-KQdXzJKUP4JhZ1qx1T9-110" value="" style="rounded=0;html=1;jettySize=auto;orthogonalLoop=1;fontSize=11;endArrow=block;endFill=0;endSize=8;strokeWidth=1;shadow=0;labelBackgroundColor=none;edgeStyle=orthogonalEdgeStyle;exitX=0.5;exitY=1;exitDx=0;exitDy=0;entryX=0.5;entryY=0;entryDx=0;entryDy=0;" edge="1" parent="WIyWlLk6GJQsqaUBKTNV-1" source="-KQdXzJKUP4JhZ1qx1T9-99" target="-KQdXzJKUP4JhZ1qx1T9-101">
          <mxGeometry relative="1" as="geometry">
            <mxPoint x="900" y="630" as="sourcePoint" />
            <mxPoint x="950" y="630" as="targetPoint" />
          </mxGeometry>
        </mxCell>
        <mxCell id="-KQdXzJKUP4JhZ1qx1T9-111" value="" style="rounded=0;html=1;jettySize=auto;orthogonalLoop=1;fontSize=11;endArrow=block;endFill=0;endSize=8;strokeWidth=1;shadow=0;labelBackgroundColor=none;edgeStyle=orthogonalEdgeStyle;exitX=0.5;exitY=0;exitDx=0;exitDy=0;entryX=0.5;entryY=1;entryDx=0;entryDy=0;" edge="1" parent="WIyWlLk6GJQsqaUBKTNV-1" source="-KQdXzJKUP4JhZ1qx1T9-102" target="-KQdXzJKUP4JhZ1qx1T9-103">
          <mxGeometry relative="1" as="geometry">
            <mxPoint x="1170" y="660" as="sourcePoint" />
            <mxPoint x="1170" y="700" as="targetPoint" />
          </mxGeometry>
        </mxCell>
        <mxCell id="-KQdXzJKUP4JhZ1qx1T9-112" value="Yes" style="rounded=0;html=1;jettySize=auto;orthogonalLoop=1;fontSize=11;endArrow=block;endFill=0;endSize=8;strokeWidth=1;shadow=0;labelBackgroundColor=none;edgeStyle=orthogonalEdgeStyle;exitX=1;exitY=0.5;exitDx=0;exitDy=0;entryX=0;entryY=0.5;entryDx=0;entryDy=0;" edge="1" parent="WIyWlLk6GJQsqaUBKTNV-1" source="-KQdXzJKUP4JhZ1qx1T9-103" target="-KQdXzJKUP4JhZ1qx1T9-104">
          <mxGeometry x="-0.208" y="10" relative="1" as="geometry">
            <mxPoint as="offset" />
            <mxPoint x="1220" y="740" as="sourcePoint" />
            <mxPoint x="1270" y="740" as="targetPoint" />
            <Array as="points">
              <mxPoint x="1390" y="620" />
              <mxPoint x="1390" y="620" />
            </Array>
          </mxGeometry>
        </mxCell>
        <mxCell id="-KQdXzJKUP4JhZ1qx1T9-113" value="Verify HMAC" style="rounded=1;whiteSpace=wrap;html=1;fontSize=12;glass=0;strokeWidth=1;shadow=0;" vertex="1" parent="WIyWlLk6GJQsqaUBKTNV-1">
          <mxGeometry x="1540" y="540" width="100" height="30" as="geometry" />
        </mxCell>
        <mxCell id="-KQdXzJKUP4JhZ1qx1T9-114" value="No" style="rounded=0;html=1;jettySize=auto;orthogonalLoop=1;fontSize=11;endArrow=block;endFill=0;endSize=8;strokeWidth=1;shadow=0;labelBackgroundColor=none;edgeStyle=orthogonalEdgeStyle;exitX=0.5;exitY=0;exitDx=0;exitDy=0;entryX=0.5;entryY=0;entryDx=0;entryDy=0;" edge="1" parent="WIyWlLk6GJQsqaUBKTNV-1" source="-KQdXzJKUP4JhZ1qx1T9-103" target="-KQdXzJKUP4JhZ1qx1T9-113">
          <mxGeometry x="0.0959" y="15" relative="1" as="geometry">
            <mxPoint as="offset" />
            <mxPoint x="1220" y="740" as="sourcePoint" />
            <mxPoint x="1430" y="570" as="targetPoint" />
            <Array as="points">
              <mxPoint x="1315" y="515" />
              <mxPoint x="1590" y="515" />
            </Array>
          </mxGeometry>
        </mxCell>
        <mxCell id="-KQdXzJKUP4JhZ1qx1T9-116" value="" style="rounded=0;html=1;jettySize=auto;orthogonalLoop=1;fontSize=11;endArrow=block;endFill=0;endSize=8;strokeWidth=1;shadow=0;labelBackgroundColor=none;edgeStyle=orthogonalEdgeStyle;exitX=0.5;exitY=0;exitDx=0;exitDy=0;entryX=0;entryY=0.5;entryDx=0;entryDy=0;" edge="1" parent="WIyWlLk6GJQsqaUBKTNV-1" source="-KQdXzJKUP4JhZ1qx1T9-104" target="-KQdXzJKUP4JhZ1qx1T9-113">
          <mxGeometry relative="1" as="geometry">
            <mxPoint x="1325" y="716" as="sourcePoint" />
            <mxPoint x="1325" y="670" as="targetPoint" />
          </mxGeometry>
        </mxCell>
        <mxCell id="-KQdXzJKUP4JhZ1qx1T9-117" value="" style="rounded=0;html=1;jettySize=auto;orthogonalLoop=1;fontSize=11;endArrow=block;endFill=0;endSize=8;strokeWidth=1;shadow=0;labelBackgroundColor=none;edgeStyle=orthogonalEdgeStyle;exitX=0.5;exitY=1;exitDx=0;exitDy=0;" edge="1" parent="WIyWlLk6GJQsqaUBKTNV-1" source="-KQdXzJKUP4JhZ1qx1T9-113" target="-KQdXzJKUP4JhZ1qx1T9-105">
          <mxGeometry relative="1" as="geometry">
            <mxPoint x="1325" y="716" as="sourcePoint" />
            <mxPoint x="1325" y="670" as="targetPoint" />
          </mxGeometry>
        </mxCell>
        <mxCell id="-KQdXzJKUP4JhZ1qx1T9-118" value="" style="rounded=0;html=1;jettySize=auto;orthogonalLoop=1;fontSize=11;endArrow=block;endFill=0;endSize=8;strokeWidth=1;shadow=0;labelBackgroundColor=none;edgeStyle=orthogonalEdgeStyle;exitX=0.5;exitY=1;exitDx=0;exitDy=0;entryX=0.5;entryY=0;entryDx=0;entryDy=0;" edge="1" parent="WIyWlLk6GJQsqaUBKTNV-1" source="-KQdXzJKUP4JhZ1qx1T9-105" target="-KQdXzJKUP4JhZ1qx1T9-106">
          <mxGeometry relative="1" as="geometry">
            <mxPoint x="1600" y="580" as="sourcePoint" />
            <mxPoint x="1600" y="630" as="targetPoint" />
          </mxGeometry>
        </mxCell>
        <mxCell id="-KQdXzJKUP4JhZ1qx1T9-119" value="No" style="rounded=0;html=1;jettySize=auto;orthogonalLoop=1;fontSize=11;endArrow=block;endFill=0;endSize=8;strokeWidth=1;shadow=0;labelBackgroundColor=none;edgeStyle=orthogonalEdgeStyle;exitX=0.5;exitY=0;exitDx=0;exitDy=0;entryX=0;entryY=0.5;entryDx=0;entryDy=0;" edge="1" parent="WIyWlLk6GJQsqaUBKTNV-1" source="-KQdXzJKUP4JhZ1qx1T9-97" target="-KQdXzJKUP4JhZ1qx1T9-103">
          <mxGeometry x="-0.8588" y="10" relative="1" as="geometry">
            <mxPoint as="offset" />
            <mxPoint x="1325" y="590" as="sourcePoint" />
            <mxPoint x="1600" y="550" as="targetPoint" />
            <Array as="points">
              <mxPoint x="990" y="525" />
              <mxPoint x="1230" y="525" />
              <mxPoint x="1230" y="620" />
            </Array>
          </mxGeometry>
        </mxCell>
      </root>
    </mxGraphModel>
  </diagram>
</mxfile>
